<?xml version="1.0" encoding="UTF-8" standalone="no"?>
<!-- Created with Inkscape (http://www.inkscape.org/) -->

<svg
   width="297mm"
   height="210mm"
   viewBox="0 0 297 210"
   version="1.1"
   id="svg1"
   xml:space="preserve"
   xmlns="http://www.w3.org/2000/svg"
   xmlns:svg="http://www.w3.org/2000/svg"><defs
     id="defs1" /><g
     id="layer1"><path
       style="display:inline;fill:none;fill-opacity:1;stroke:#000000;stroke-width:0.465;stroke-dasharray:none;stroke-opacity:1"
       d="m 56.527974,83.539136 v 42.580204 h 27.471539 v 26.41494 h -5.859314 v -1.10463 H 67.574223 l -0.325046,1.21309 H 33.907179 v 4.0699 h 3.265848 v 6.57972 h 1.152652 v -6.57972 h 8.885025 v 6.62775 h 0.912516 v -6.81986 h 8.020537 v 6.77183 h 1.200679 v -6.7238 h 8.404754 v 6.62775 l 0.97703,0.26179 v -6.84151 h 8.724458 v 6.7238 l 0.79779,-0.21376 v -6.55807 h 8.471453 v 6.67578 h 0.960543 v -6.43564 h 4.802717 v 1.00857 h 3.698092 v 6.53169 h 0.720407 v -6.7238 h 0.720408 v -1.0566 h 3.457956 v 1.10463 h 4.466526 v 6.67577 h 0.81646 v -6.77183 h 0.67238 v -0.57632 h 9.12516 v -1.24871 h -6.38761 v -5.23496 h 6.7238 v -1.10463 h -6.57972 v -6.48366 h -1.15265 v -4.46653 h 1.29673 v -0.5283 h 6.43564 l -0.22577,-0.8426 h -6.40198 v -6.07331 h -0.96054 v -2.68952 h 1.0566 v -10.90217 c 3.24601,-8.3417 16.1769,-8.0887 18.53849,-8.21264 v 1.15265 h 6.77183 v 5.95537 h 1.96911 v -6.29156 h 6.09945 v -0.91252 h 4.17836 v 1.33276 h 6.3516 v 5.72783 h 2.20413 v -6.01098 h 6.2487 v -0.71317 h 4.14316 v 0.91693 h 6.48643 v 5.9091 h 2.10554 v -5.97702 h 6.0789 v -1.01881 h 5.7393 v 1.18861 h 4.82236 v 6.0789 h 2.20742 v -6.19776 h 4.73747 v -0.88297 h 5.55252 v 1.13767 h 6.43548 v 5.9091 h 2.12252 v -5.92608 h 6.18078 v -1.13767 h 4.04128 v 1.20559 h 6.5034 v 5.75628 h 1.9697 v -5.80722 h 6.36757 v -1.03579 h 6.0789 v -7.94672 h -6.11286 v -1.01881 H 229.453 v -5.892116 h -2.00366 v 5.993996 h -6.38454 v 0.96787 h -4.00732 v -1.08673 h -6.40152 v -5.875136 h -2.03762 v 6.027956 h -6.4185 v 1.05278 h -5.6544 v -1.23956 h -4.66955 v -5.773255 h -2.1395 v 5.807215 h -4.94123 v 0.84901 h -5.60345 v -1.17163 h -6.35059 v -5.518554 h -2.05459 v 5.756274 h -6.36757 v 0.89995 h -4.07524 v -0.98485 h -6.1638 v -5.790236 h -2.29232 v 5.943056 h -6.35058 v 0.89995 h -26.65887 c -4.12053,-1.0267 -10.94554,-6.482286 -11.87362,-11.614652 V 82.0304 h 1.05659 V 71.968708 h 4.56258 v -2.137209 h -5.59516 v -5.066866 h 1.0566 v -8.957066 h 4.22639 v -2.113195 h -5.25898 v -1.302065 h -0.55294 V 46.1421 h -0.86386 v 6.171491 h -5.307 v 1.236699 h -3.986255 v -1.500849 h -0.276156 v -5.991389 h -0.744421 v 5.943362 h -8.224652 v -5.919348 h -1.284727 v 5.955368 H 85.24822 v 1.368775 h -7.444211 v -1.404795 h -0.516292 v -5.967375 h -1.248706 v 6.003395 h -4.034282 v 1.356768 h -3.265848 v -1.356768 h -0.648366 v -6.17149 H 66.68572 v 6.147477 H 58.809265 V 45.87795 H 57.40447 v 6.09945 h -1.356767 v 1.392788 h -2.305304 v 4.382479 h 47.690971 v 7.108021 h 1.41681 v 18.802635 z"
       id="path1" /><path
       id="REG_01"
       style="font-variation-settings:normal;opacity:1;vector-effect:none;fill:#000000;fill-opacity:0.303468;stroke:#ff00fc;stroke-width:0.165;stroke-linecap:butt;stroke-linejoin:miter;stroke-miterlimit:4;stroke-dasharray:none;stroke-dashoffset:0;stroke-opacity:1;-inkscape-stroke:none;stop-color:#000000;stop-opacity:1"
       d="m 32.946636,146.05061 h 50.764721 v 18.15427 H 32.946636 Z" /><path
       id="REG_02"
       style="font-variation-settings:normal;opacity:1;vector-effect:none;fill:#000000;fill-opacity:0.303468;stroke:#ff00fc;stroke-width:0.165;stroke-linecap:butt;stroke-linejoin:miter;stroke-miterlimit:4;stroke-dasharray:none;stroke-dashoffset:0;stroke-opacity:1;-inkscape-stroke:none;stop-color:#000000;stop-opacity:1"
       d="m 83.855438,126.11934 h 31.362002 v 38.99804 H 83.855438 Z" /><path
       id="REG_03"
       style="font-variation-settings:normal;opacity:1;vector-effect:none;fill:#000000;fill-opacity:0.303468;stroke:#ff00fc;stroke-width:0.165;stroke-linecap:butt;stroke-linejoin:miter;stroke-miterlimit:4;stroke-dasharray:none;stroke-dashoffset:0;stroke-opacity:1;-inkscape-stroke:none;stop-color:#000000;stop-opacity:1"
       d="m 55.415028,104.62772 h 35.922374 v 21.52769 H 55.415028 Z" /><path
       id="REG_04"
       style="font-variation-settings:normal;opacity:1;vector-effect:none;fill:#000000;fill-opacity:0.303468;stroke:#ff00fc;stroke-width:0.165;stroke-linecap:butt;stroke-linejoin:miter;stroke-miterlimit:4;stroke-dasharray:none;stroke-dashoffset:0;stroke-opacity:1;-inkscape-stroke:none;stop-color:#000000;stop-opacity:1"
       d="M 54.462803,81.934349 H 111.32697 V 104.50712 H 54.462803 Z" /><path
       style="font-variation-settings:normal;opacity:1;vector-effect:none;fill:#000000;fill-opacity:0.303468;stroke:#ff00fc;stroke-width:0.20331;stroke-linecap:butt;stroke-linejoin:miter;stroke-miterlimit:4;stroke-dasharray:none;stroke-dashoffset:0;stroke-opacity:1;-inkscape-stroke:none;stop-color:#000000;stop-opacity:1"
       d="M 91.440342,126.00766 H 144.17641 V 82.406909 h -32.84975 l -0.0679,22.216351 H 91.37249 Z"
       id="REG_05" /><path
       id="REG_06"
       style="font-variation-settings:normal;opacity:1;vector-effect:none;fill:#000000;fill-opacity:0.303468;stroke:#ff00fc;stroke-width:0.196396;stroke-linecap:butt;stroke-linejoin:miter;stroke-miterlimit:4;stroke-dasharray:none;stroke-dashoffset:0;stroke-opacity:1;-inkscape-stroke:none;stop-color:#000000;stop-opacity:1"
       d="m 144.55089,87.633367 h 54.5766 v 39.090913 h -54.5766 z" /><path
       id="REG_07"
       style="font-variation-settings:normal;opacity:1;vector-effect:none;fill:#000000;fill-opacity:0.303468;stroke:#ff00fc;stroke-width:0.204964;stroke-linecap:butt;stroke-linejoin:miter;stroke-miterlimit:4;stroke-dasharray:none;stroke-dashoffset:0;stroke-opacity:1;-inkscape-stroke:none;stop-color:#000000;stop-opacity:1"
       d="m 199.29923,83.562404 h 44.10845 v 43.429256 h -44.10845 z" /><path
       id="REG_08"
       style="font-variation-settings:normal;opacity:1;vector-effect:none;fill:#000000;fill-opacity:0.303468;stroke:#ff00fc;stroke-width:0.194142;stroke-linecap:butt;stroke-linejoin:miter;stroke-miterlimit:4;stroke-dasharray:none;stroke-dashoffset:0;stroke-opacity:1;-inkscape-stroke:none;stop-color:#000000;stop-opacity:1"
       d="M 93.763602,42.854804 H 121.97726 V 81.82372 H 93.763602 Z" /><path
       id="REG_09"
       style="font-variation-settings:normal;opacity:1;vector-effect:none;fill:#000000;fill-opacity:0.303468;stroke:#ff00fc;stroke-width:0.165;stroke-linecap:butt;stroke-linejoin:miter;stroke-miterlimit:4;stroke-dasharray:none;stroke-dashoffset:0;stroke-opacity:1;-inkscape-stroke:none;stop-color:#000000;stop-opacity:1"
       d="m 51.965397,40.727036 h 41.68758 v 18.538486 h -41.68758 z" /></g></svg>
